<svg width="48" height="48" viewBox="0 0 48 48" fill="none" xmlns="http://www.w3.org/2000/svg">
<g clip-path="url(#clip0_90_7486)">
<mask id="mask0_90_7486" style="mask-type:luminance" maskUnits="userSpaceOnUse" x="0" y="0" width="48" height="48">
<path d="M48 0H0V48H48V0Z" fill="white"/>
</mask>
<g mask="url(#mask0_90_7486)">
<path fill-rule="evenodd" clip-rule="evenodd" d="M48 44.1592C48 46.2812 46.282 47.9999 44.1511 47.9999H3.84883C1.72765 47.9999 0 46.2812 0 44.1592V3.84067C0 1.71871 1.72765 -6.10352e-05 3.84883 -6.10352e-05H44.1511C46.2724 -6.10352e-05 48 1.71871 48 3.84067V44.1592Z" fill="#FFE600"/>
<path fill-rule="evenodd" clip-rule="evenodd" d="M24.0034 11.9999C17.0998 11.9999 11.5 16.5926 11.5 22.2623C11.5 25.9067 13.8207 29.104 17.3018 30.9263L16.1219 35.4985C16.0763 35.634 16.1154 35.7898 16.2132 35.8915C16.2784 35.9591 16.3696 35.9999 16.4674 35.9999C16.5456 35.9999 16.6173 35.9659 16.6825 35.9117L21.7477 32.3556C22.4843 32.4638 23.234 32.5249 23.9968 32.5249C30.9002 32.5249 36.5 27.9322 36.5 22.2623C36.5065 16.5926 30.9068 11.9999 24.0034 11.9999Z" fill="#381E1E"/>
<path fill-rule="evenodd" clip-rule="evenodd" d="M16.3676 20.1334H15.1629C14.9957 20.1334 14.8574 20.0924 14.7363 20.0165C14.6153 19.9406 14.5461 19.8295 14.5173 19.6894C14.5115 19.6542 14.5058 19.6075 14.5 19.5667C14.5 19.3914 14.5634 19.2511 14.6902 19.1518C14.817 19.0525 14.9727 18.9999 15.1629 18.9999H18.8404C19.0076 18.9999 19.1517 19.0409 19.2671 19.1168C19.3881 19.1928 19.4629 19.2979 19.4918 19.444C19.4976 19.4849 19.5033 19.5257 19.4976 19.5667C19.4976 19.7477 19.4342 19.888 19.3132 19.9873C19.1921 20.0866 19.0365 20.1334 18.8404 20.1334H17.6415V24.3339C17.6415 24.5325 17.5839 24.696 17.4686 24.8187C17.3533 24.9414 17.1977 24.9999 17.0017 24.9999C16.8403 24.9999 16.7077 24.9532 16.5924 24.8655C16.4771 24.772 16.408 24.6552 16.3791 24.4974C16.3676 24.439 16.3676 24.3865 16.3676 24.3281V20.1334Z" fill="#FFE600"/>
<path fill-rule="evenodd" clip-rule="evenodd" d="M20.2468 19.4015C20.2983 19.2581 20.3728 19.1549 20.4759 19.0917C20.579 19.0287 20.705 18.9999 20.8655 18.9999H21.169C21.3351 18.9999 21.4725 19.0344 21.5813 19.0975C21.6902 19.1606 21.7817 19.2926 21.8448 19.4818L23.3739 23.9159C23.4256 24.0536 23.4598 24.1683 23.477 24.2714C23.4885 24.3345 23.5 24.3861 23.5 24.4263C23.5 24.5869 23.437 24.7246 23.3224 24.8337C23.2078 24.9484 23.0647 24.9999 22.9043 24.9999C22.6122 24.9999 22.4233 24.8796 22.3374 24.6385L22.0109 23.6748H19.9719L19.6454 24.6385C19.5653 24.8796 19.3762 24.9999 19.0785 24.9999C18.9296 24.9999 18.8035 24.9655 18.7063 24.8852C18.6031 24.8106 18.5401 24.6958 18.5115 24.5582C18.5 24.5181 18.5 24.4722 18.5 24.4263C18.5 24.3632 18.5057 24.283 18.5344 24.1912C18.5573 24.0993 18.5859 24.0075 18.6203 23.9215L20.2468 19.4015ZM21.0086 20.4282H20.9914L20.2468 22.757H21.7245L21.0086 20.4282Z" fill="#FFE600"/>
<path fill-rule="evenodd" clip-rule="evenodd" d="M23.5071 19.6659C23.5071 19.4673 23.578 19.3037 23.7195 19.1811C23.8611 19.0584 24.0524 18.9999 24.2932 18.9999C24.4915 18.9999 24.6614 19.0467 24.796 19.1343C24.9306 19.222 25.0227 19.3446 25.058 19.4966C25.0723 19.5549 25.0793 19.6076 25.0723 19.6659V23.8724H27.6854C27.898 23.8724 28.075 23.9074 28.2167 23.9893C28.3583 24.0652 28.4504 24.1762 28.4786 24.3164C28.4929 24.3513 28.5 24.3982 28.5 24.439C28.5 24.6201 28.422 24.7603 28.2662 24.8538C28.1105 24.9532 27.9192 24.9999 27.6854 24.9999H24.4208C24.1799 24.9999 23.9816 24.959 23.8329 24.8772C23.6842 24.7955 23.585 24.6669 23.5355 24.4799C23.5141 24.404 23.5071 24.3164 23.5 24.2171L23.5071 19.6659Z" fill="#FFE600"/>
<path fill-rule="evenodd" clip-rule="evenodd" d="M28.5 19.6539C28.5 19.4588 28.5618 19.2982 28.6852 19.1778C28.8087 19.0573 28.9753 18.9999 29.1852 18.9999C29.3581 18.9999 29.5 19.0458 29.6234 19.1318C29.7469 19.2179 29.821 19.3383 29.8518 19.4876C29.8642 19.5448 29.8703 19.5965 29.8642 19.6539L29.8703 21.5754L32.0124 19.2867C32.1111 19.1892 32.1913 19.1205 32.2716 19.0688C32.3518 19.0229 32.4445 18.9999 32.5555 18.9999C32.7037 18.9999 32.8395 19.0402 32.9629 19.1147C33.0865 19.1892 33.1605 19.2926 33.1913 19.4244C33.1913 19.4301 33.1976 19.4474 33.2037 19.476C33.2037 19.4932 33.2037 19.5162 33.2098 19.5277C33.2098 19.6194 33.1852 19.6997 33.1482 19.7686C33.105 19.8432 33.0494 19.9119 32.9876 19.9809L31.5865 21.4033L33.2408 23.8412L33.2902 23.9159C33.4013 24.0822 33.4692 24.2027 33.4876 24.283C33.4876 24.2887 33.4939 24.3059 33.5 24.3231C33.5 24.346 33.5 24.3575 33.5 24.3632C33.5 24.5869 33.4321 24.7532 33.2963 24.8508C33.1605 24.9484 32.9939 24.9999 32.8024 24.9999C32.6605 24.9999 32.5494 24.977 32.4629 24.9311C32.3766 24.8796 32.2839 24.7934 32.1976 24.6558L30.6234 22.304L29.8766 23.0267L29.8827 24.3404C29.8827 24.5354 29.821 24.6958 29.6976 24.8164C29.574 24.9368 29.4074 24.9943 29.1976 24.9943C29.0247 24.9943 28.8766 24.9484 28.7592 24.8623C28.6419 24.7705 28.5618 24.6558 28.5308 24.5008C28.5185 24.4435 28.5185 24.3919 28.5185 24.3345L28.5 19.6539Z" fill="#FFE600"/>
</g>
</g>
<defs>
<clipPath id="clip0_90_7486">
<rect width="48" height="48" rx="24" fill="white"/>
</clipPath>
</defs>
</svg>
