<svg width="24" height="24" viewBox="0 0 24 24" fill="none" xmlns="http://www.w3.org/2000/svg">
<path d="M11.1962 2.74912L11.3342 2.82212L19.1282 7.32212C19.564 7.57378 19.8889 7.98048 20.0381 8.46109C20.1873 8.9417 20.1499 9.4609 19.9332 9.91512L19.8602 10.0541L13.8602 20.4461C13.6085 20.8819 13.2018 21.2068 12.7212 21.356C12.2406 21.5052 11.7214 21.4678 11.2672 21.2511L11.1282 21.1781L3.3342 16.6781C2.89815 16.4264 2.57307 16.0196 2.42385 15.5387C2.27463 15.0579 2.31225 14.5384 2.5292 14.0841L2.6022 13.9461L7.1022 6.15212L5.3702 5.15212C5.1476 5.02538 4.98212 4.81805 4.90789 4.57288C4.83366 4.32772 4.85634 4.06342 4.97125 3.83448C5.08617 3.60555 5.28455 3.42945 5.5255 3.34249C5.76644 3.25553 6.03157 3.26434 6.2662 3.36712L6.3702 3.42012L8.1022 4.42012L8.6022 3.55412C8.83973 3.14207 9.21634 2.82816 9.66443 2.66871C10.1125 2.50927 10.6028 2.51473 11.0472 2.68412L11.1962 2.74912ZM20.3022 11.2291L20.4992 11.0001L20.5752 11.0871L20.7732 11.3221L20.9502 11.5421L21.1472 11.8001L21.3512 12.0841C21.6892 12.5731 21.9992 13.1241 21.9992 13.5001C21.9992 13.8979 21.8412 14.2795 21.5599 14.5608C21.2786 14.8421 20.897 15.0001 20.4992 15.0001C20.1014 15.0001 19.7198 14.8421 19.4385 14.5608C19.1572 14.2795 18.9992 13.8979 18.9992 13.5001C18.9992 13.0481 19.4452 12.3451 19.8512 11.8001L20.0482 11.5421L20.3022 11.2291ZM10.3342 4.55412L9.8342 5.42012L10.7002 5.92012C10.928 6.05367 11.0937 6.2719 11.1612 6.5272C11.2287 6.7825 11.1925 7.05412 11.0605 7.28281C10.9284 7.5115 10.7113 7.67868 10.4565 7.74787C10.2016 7.81705 9.92976 7.78263 9.7002 7.65212L8.8342 7.15212L7.1902 10.0001H17.5822L18.1282 9.05412L10.3342 4.55412Z" fill="currentColor"/>
</svg>
