<svg width="24" height="24" viewBox="0 0 24 24" fill="currentColor" xmlns="http://www.w3.org/2000/svg">
<path d="M21.9112 7.14205C21.5608 5.93872 20.9125 4.84324 20.0263 3.95701C19.1401 3.07078 18.0446 2.42246 16.8412 2.07205C16.5133 1.98738 16.1692 1.98738 15.8412 2.07205C15.5114 2.16781 15.2118 2.34689 14.9712 2.59205L12.7412 4.83205L3.20124 14.3621C2.90084 14.6748 2.70513 15.0732 2.64125 15.5021L2.03124 19.6621C1.98423 19.9734 2.00816 20.2913 2.10125 20.5921C2.20325 20.8921 2.37125 21.1651 2.59125 21.3921C2.81525 21.6141 3.08525 21.7841 3.38125 21.8921C3.58825 21.9601 3.80424 21.9931 4.02125 21.9921H4.31124L8.47124 21.3821C8.90554 21.3263 9.30955 21.1296 9.62125 20.8221L19.1712 11.2721L21.3912 9.06205C21.6415 8.81731 21.823 8.51115 21.9178 8.17421C22.0126 7.83727 22.0172 7.48135 21.9312 7.14205H21.9112ZM20.4512 7.77205C20.424 7.85609 20.3758 7.9318 20.3112 7.99205L18.6212 9.68205L14.3012 5.37205L16.0112 3.66205C16.0769 3.60163 16.1556 3.55715 16.2412 3.53205H16.4712C17.418 3.81365 18.2795 4.32689 18.978 5.02532C19.6764 5.72375 20.1896 6.58532 20.4712 7.53205C20.4817 7.61257 20.4749 7.69439 20.4512 7.77205Z" fill="currentColor"/>
</svg>
