<svg width="24" height="24" viewBox="0 0 24 24" fill="none" xmlns="http://www.w3.org/2000/svg">
<path d="M22 12C22 13.9778 21.4135 15.9112 20.3147 17.5557C19.2159 19.2002 17.6541 20.4819 15.8268 21.2388C13.9996 21.9957 11.9889 22.1937 10.0491 21.8078C8.10929 21.422 6.32746 20.4696 4.92894 19.0711C3.53041 17.6725 2.578 15.8907 2.19215 13.9509C1.8063 12.0111 2.00433 10.0004 2.76121 8.17316C3.51809 6.3459 4.79981 4.78412 6.4443 3.6853C8.08879 2.58649 10.0222 2 12 2C14.6522 2 17.1957 3.05357 19.0711 4.92893C20.9464 6.8043 22 9.34783 22 12Z" fill="#E8E8E9"/>
<path d="M17 12C17 12.221 16.9122 12.433 16.7559 12.5893C16.5996 12.7455 16.3877 12.8333 16.1667 12.8333H12.8333V16.1667C12.8333 16.3877 12.7455 16.5996 12.5893 16.7559C12.433 16.9122 12.221 17 12 17C11.779 17 11.567 16.9122 11.4107 16.7559C11.2545 16.5996 11.1667 16.3877 11.1667 16.1667V12.8333H7.83333C7.61232 12.8333 7.40036 12.7455 7.24408 12.5893C7.0878 12.433 7 12.221 7 12C7 11.779 7.0878 11.567 7.24408 11.4107C7.40036 11.2545 7.61232 11.1667 7.83333 11.1667H11.1667V7.83333C11.1667 7.61232 11.2545 7.40036 11.4107 7.24408C11.567 7.0878 11.779 7 12 7C12.221 7 12.433 7.0878 12.5893 7.24408C12.7455 7.40036 12.8333 7.61232 12.8333 7.83333V11.1667H16.1667C16.3877 11.1667 16.5996 11.2545 16.7559 11.4107C16.9122 11.567 17 11.779 17 12Z" fill="#8A8B8F"/>
</svg>
