<svg width="100" height="100" viewBox="0 0 100 100" fill="none" xmlns="http://www.w3.org/2000/svg">
<rect width="100" height="100" rx="50" fill="#D1D1D1"/>
<path d="M43 59C42.45 59 41.9793 58.8043 41.588 58.413C41.1967 58.0217 41.0007 57.5507 41 57V43C41 42.45 41.196 41.9793 41.588 41.588C41.98 41.1967 42.4507 41.0007 43 41H57C57.55 41 58.021 41.196 58.413 41.588C58.805 41.98 59.0007 42.4507 59 43V57C59 57.55 58.8043 58.021 58.413 58.413C58.0217 58.805 57.5507 59.0007 57 59H43ZM43 57H57V43H43V57ZM44 55H56L52.25 50L49.25 54L47 51L44 55Z" fill="#757575"/>
</svg>
