<svg width="61" height="24" viewBox="0 0 61 24" fill="none" xmlns="http://www.w3.org/2000/svg">
<path fill-rule="evenodd" clip-rule="evenodd" d="M11.5014 18.5C13.4064 18.5 15.12 17.6809 16.3091 16.3757L17.206 16.8705C15.8302 18.4798 13.785 19.5 11.5014 19.5C7.3585 19.5 4 16.1421 4 12C4 7.85786 7.3585 4.5 11.5014 4.5C15.4278 4.5 18.6497 7.51609 18.9757 11.3574H20.109L18.4045 14.0904L16.7 11.3574H17.9715C17.6487 8.06935 14.8753 5.5 11.5014 5.5C7.9106 5.5 5 8.41033 5 12C5 15.5897 7.9106 18.5 11.5014 18.5Z" fill="#DD3C41"/>
<path d="M35.6211 15.6738V16.5762H24.4922V15.6738H29.5098V12.8848H30.5625V15.6738H35.6211ZM34.5547 7.89453V8.7832H30.5898C30.5967 10.6904 32.6201 12.0918 34.9512 12.4746L34.541 13.3223C32.5928 12.9736 30.8086 11.9961 30.043 10.4785C29.2705 11.9961 27.4863 12.9736 25.5312 13.3223L25.1074 12.4746C27.4521 12.0918 29.4893 10.6904 29.4961 8.7832H25.5312V7.89453H29.5098V6.21289H30.5625V7.89453H34.5547ZM46.6406 5.95312V18.1074H45.5605V5.95312H46.6406ZM43.0449 7.2793C43.0312 10.7793 41.4043 13.8691 37.3301 15.8242L36.7422 14.9492C40.0303 13.3906 41.7051 11.0596 41.9512 8.1543H37.3027V7.2793H43.0449ZM58.125 5.95312V11.1348H60.0664V12.0371H58.125V18.1074H57.0449V5.95312H58.125ZM48.541 14.8672C49.5322 14.8672 50.6875 14.8672 51.8906 14.8262V13.4727C50.4756 13.3154 49.5527 12.4883 49.5664 11.2852C49.5527 9.91797 50.7148 9.0293 52.4375 9.0293C54.1328 9.0293 55.3086 9.91797 55.3223 11.2852C55.3086 12.4883 54.3721 13.3154 52.9707 13.4863V14.7852C54.1055 14.7305 55.2471 14.6416 56.3066 14.4844L56.375 15.3047C53.7227 15.7559 50.8516 15.7832 48.7188 15.7832L48.541 14.8672ZM56.0879 7.44336V8.31836H48.7598V7.44336H51.8906V5.98047H52.9707V7.44336H56.0879ZM52.4375 9.86328C51.3164 9.86328 50.5645 10.4375 50.5645 11.2852C50.5645 12.1328 51.3164 12.6797 52.4375 12.666C53.5449 12.6797 54.2969 12.1328 54.2969 11.2852C54.2969 10.4375 53.5449 9.86328 52.4375 9.86328Z" fill="#DD3C41"/>
</svg>
