<svg width="24" height="24" viewBox="0 0 24 24" fill="none" xmlns="http://www.w3.org/2000/svg">
<path d="M4 5.5C4 5.10218 4.15804 4.72064 4.43934 4.43934C4.72064 4.15804 5.10218 4 5.5 4H17.5C17.8978 4 18.2794 4.15804 18.5607 4.43934C18.842 4.72064 19 5.10218 19 5.5V8.5C19 8.89782 18.842 9.27936 18.5607 9.56066C18.2794 9.84196 17.8978 10 17.5 10C17.1022 10 16.7206 9.84196 16.4393 9.56066C16.158 9.27936 16 8.89782 16 8.5V7H13V17H13.5C13.8978 17 14.2794 17.158 14.5607 17.4393C14.842 17.7206 15 18.1022 15 18.5C15 18.8978 14.842 19.2794 14.5607 19.5607C14.2794 19.842 13.8978 20 13.5 20H9.5C9.10218 20 8.72064 19.842 8.43934 19.5607C8.15804 19.2794 8 18.8978 8 18.5C8 18.1022 8.15804 17.7206 8.43934 17.4393C8.72064 17.158 9.10218 17 9.5 17H10V7H7V8.5C7 8.89782 6.84196 9.27936 6.56066 9.56066C6.27936 9.84196 5.89782 10 5.5 10C5.10218 10 4.72064 9.84196 4.43934 9.56066C4.15804 9.27936 4 8.89782 4 8.5V5.5Z" fill="currentColor"/>
</svg>
